<svg width="12" height="12" viewBox="0 0 12 12" fill="none" xmlns="http://www.w3.org/2000/svg">
<path d="M6.57935 0.611016L7.9328 3.35918C8.02692 3.55032 8.2089 3.68276 8.41941 3.71336L11.446 4.15408C11.9761 4.23134 12.1876 4.88402 11.8042 5.25852L9.61416 7.39765C9.46197 7.5464 9.39238 7.76086 9.42843 7.97081L9.94532 10.9914C10.0359 11.5204 9.48174 11.9237 9.00765 11.6742L6.30075 10.2482C6.11252 10.1491 5.88748 10.1491 5.69925 10.2482L2.99235 11.6742C2.51826 11.924 1.96406 11.5204 2.05468 10.9914L2.57157 7.97081C2.60762 7.76086 2.53803 7.5464 2.38584 7.39765L0.195843 5.25852C-0.187638 4.88377 0.0238776 4.23109 0.554043 4.15408L3.58059 3.71336C3.7911 3.68276 3.97308 3.55032 4.0672 3.35918L5.42065 0.611016C5.65744 0.129661 6.3423 0.129661 6.57935 0.611016Z" fill="#FFB825"/>
</svg>
