<svg width="20" height="24" viewBox="0 0 20 24" fill="none" xmlns="http://www.w3.org/2000/svg">
<path d="M5.15023 10.371L0 20.241L4.67687 19.8015L6.94046 23.988L12.0907 14.118L5.15023 10.371Z" fill="#E95454"/>
<path d="M5.74009 21.114C5.88461 20.7982 5.73346 20.421 5.43115 20.2575L5.13475 20.097C4.83834 19.9252 4.72553 19.5435 4.88701 19.2345C5.05069 18.9202 5.43558 18.8002 5.74452 18.9667L6.58212 19.419C6.84092 19.5585 7.16535 19.4572 7.2988 19.1925L7.31945 19.152C7.47281 18.9022 7.38212 18.5722 7.12701 18.435L4.62157 17.0827C4.31632 16.9177 4.16664 16.542 4.30894 16.2255C4.46599 15.8887 4.86267 15.756 5.18194 15.9285L7.50599 17.1832C7.76479 17.3227 8.08922 17.2215 8.22636 16.9582L8.23963 16.9237L8.24332 16.9162C8.39152 16.6402 8.28756 16.2937 8.01401 16.146L6.71042 15.4425C6.40516 15.2775 6.25549 14.9017 6.4 14.5815C6.55558 14.2485 6.95373 14.112 7.273 14.2845L8.713 15.0622C8.98212 15.2077 9.3036 15.0862 9.44295 14.8102C9.44516 14.8065 9.44516 14.8065 9.44664 14.8027C9.44885 14.799 9.44885 14.799 9.45032 14.7952C9.59705 14.523 9.51595 14.184 9.24608 14.0392L7.69254 13.2007C7.39097 13.038 7.24129 12.6622 7.3836 12.3457C7.54065 12.009 7.93733 11.8762 8.25659 12.0487L12.0892 14.118L6.93899 23.988L5.51963 21.3637C5.61106 21.3007 5.69069 21.2227 5.74009 21.114Z" fill="#ED6362"/>
<path d="M14.7841 10.371L19.9344 20.241L15.2575 19.8015L12.9939 23.988L7.84369 14.118L14.7841 10.371Z" fill="#ED6362"/>
<path d="M14.1943 21.114C14.0498 20.7983 14.2009 20.421 14.5032 20.2575L14.7996 20.097C15.096 19.9253 15.2088 19.5435 15.0474 19.2345C14.8837 18.9203 14.4988 18.8003 14.1899 18.9668L13.3523 19.419C13.0935 19.5585 12.769 19.4573 12.6356 19.1925L12.6149 19.152C12.4616 18.9023 12.5523 18.5723 12.8074 18.435L15.3135 17.082C15.6188 16.917 15.7685 16.5413 15.6262 16.2248C15.4691 15.888 15.0724 15.7553 14.7532 15.9278L12.4291 17.1825C12.1703 17.322 11.8459 17.2208 11.7088 16.9575L11.6955 16.923L11.6918 16.9155C11.5436 16.6395 11.6476 16.293 11.9211 16.1453L13.2247 15.4418C13.53 15.2768 13.6796 14.901 13.5351 14.5808C13.3795 14.2478 12.9814 14.1113 12.6621 14.2838L11.2206 15.063C10.9515 15.2085 10.63 15.087 10.4907 14.811C10.4885 14.8073 10.4885 14.8073 10.487 14.8035C10.4848 14.7998 10.4848 14.7998 10.4833 14.796C10.3366 14.5238 10.4177 14.1848 10.6876 14.04L12.2411 13.2015C12.5427 13.0388 12.6923 12.663 12.55 12.3465C12.393 12.0098 11.9963 11.877 11.677 12.0495L7.84442 14.1188L12.9947 23.9888L14.414 21.3645C14.3233 21.3008 14.2437 21.2228 14.1943 21.114Z" fill="#E95454"/>
<ellipse cx="9.96716" cy="8.75325" rx="8.60535" ry="8.75325" fill="#FFCC5B"/>
<path d="M11.1344 7.74898H5.6811C5.25713 7.74898 4.90911 7.39498 4.90911 6.96373L4.91501 6.90973V6.89773C4.90911 6.44248 5.27409 6.07048 5.72239 6.07048H9.50192C10.0026 6.07048 10.445 5.69323 10.4745 5.18323C10.4981 4.64998 10.08 4.19998 9.55501 4.19998H5.55133C5.10967 4.19998 4.77934 3.82273 4.78524 3.37273C4.78524 3.36673 4.78524 3.36673 4.78524 3.36073C4.78524 3.35473 4.78524 3.35473 4.78524 3.34873C4.77934 2.89948 5.10893 2.52148 5.55133 2.52148H9.74082C10.2356 2.52148 10.678 2.14423 10.7075 1.64023C10.731 1.10098 10.313 0.656982 9.78801 0.656982H6.71999C3.59151 1.96873 1.3869 5.09773 1.3869 8.75323C1.3869 12.4087 3.59151 15.537 6.72073 16.8472H10.616C11.1108 16.8472 11.5532 16.47 11.5827 15.966C11.6063 15.4267 11.1882 14.9835 10.6632 14.9835L6.23188 14.9827C5.70911 14.9827 5.2881 14.538 5.31612 13.9995C5.34192 13.4955 5.78727 13.1167 6.28349 13.1167H8.00146C8.49547 13.1025 8.89437 12.6907 8.89437 12.1845C8.89437 11.6692 8.4822 11.2492 7.97492 11.2492H5.37068C4.94672 11.2492 4.5987 10.896 4.6046 10.464V10.398C4.5751 9.97273 4.91133 9.61273 5.32939 9.61273H11.0813C11.5819 9.61273 12.0243 9.23548 12.0538 8.73148C12.0774 8.19298 11.6586 7.74898 11.1344 7.74898Z" fill="#FDBC4B"/>
<path d="M9.9672 15.0008C6.57992 15.0008 3.82452 12.1973 3.82452 8.7525C3.82452 5.30775 6.57992 2.505 9.9672 2.505C13.3545 2.505 16.1099 5.3085 16.1099 8.75325C16.1099 12.198 13.3545 15.0008 9.9672 15.0008Z" fill="#FFDB70"/>
<path d="M7.00753 11.2268C6.91094 11.316 6.85417 11.4225 6.80919 11.535C6.76642 11.6483 6.73546 11.7675 6.74357 11.901C6.75242 12.0353 6.80624 12.183 6.81361 12.3158C6.81509 12.333 6.81066 12.3495 6.8114 12.366C6.56366 12.033 6.35205 11.6798 6.1773 11.3123C6.18172 11.238 6.19278 11.1675 6.21933 11.1053C6.26209 10.9973 6.35278 10.9163 6.4103 10.818C6.46707 10.7198 6.49509 10.6073 6.51942 10.4925C6.54154 10.3763 6.55924 10.2585 6.54818 10.1205C6.53785 10.1138 6.52679 10.107 6.51647 10.0995C6.40661 10.1588 6.33066 10.242 6.2643 10.3335C6.20089 10.4265 6.14633 10.527 6.12569 10.65C6.10652 10.7738 6.12569 10.92 6.10431 11.0408C6.10062 11.064 6.0903 11.0843 6.0844 11.1068C5.92513 10.7393 5.80126 10.359 5.71352 9.97126C5.73343 9.88726 5.76071 9.80926 5.80569 9.74776C5.86762 9.66001 5.97085 9.60826 6.04458 9.53326C6.11758 9.45676 6.1655 9.36076 6.20974 9.26026C6.25251 9.15751 6.29085 9.05251 6.30412 8.92051C6.29527 8.91151 6.28642 8.90251 6.27758 8.89351C6.16255 8.92126 6.07481 8.98051 5.99518 9.04876C5.91702 9.11851 5.84698 9.19951 5.80348 9.30676C5.76145 9.41551 5.75186 9.55501 5.70762 9.66001C5.69656 9.68851 5.67887 9.71026 5.66412 9.73576C5.59186 9.35176 5.55426 8.96176 5.55205 8.57101C5.59113 8.47876 5.63684 8.39476 5.7032 8.33926C5.77841 8.27326 5.88458 8.25226 5.9679 8.20051C6.05048 8.14801 6.11315 8.06851 6.17288 7.98526C6.23113 7.89901 6.28569 7.80826 6.32182 7.68526C6.31518 7.67401 6.30854 7.66351 6.30191 7.65226C6.18836 7.64926 6.09619 7.68451 6.00919 7.72876C5.92366 7.77601 5.84255 7.83301 5.78283 7.92451C5.72311 8.01676 5.68919 8.14501 5.62799 8.23201C5.60735 8.26276 5.58154 8.28526 5.55647 8.30926C5.56974 7.92751 5.61619 7.54651 5.69583 7.17001C5.69951 7.16401 5.7032 7.15876 5.70689 7.15276C5.76661 7.06051 5.83297 6.97876 5.91629 6.93751C5.99813 6.89401 6.09988 6.90226 6.18689 6.87376C6.27315 6.84451 6.34541 6.78451 6.41619 6.71776C6.4855 6.64876 6.5526 6.57451 6.60937 6.46276C6.60495 6.45076 6.60126 6.43801 6.59684 6.42526C6.49288 6.39451 6.40145 6.40576 6.31297 6.42676C6.22523 6.45076 6.1397 6.48601 6.06744 6.55876C5.99518 6.63301 5.93914 6.74776 5.86615 6.81376C5.83444 6.84451 5.79979 6.86476 5.76366 6.88426C5.86099 6.51076 5.99297 6.14326 6.15813 5.78701C6.16108 5.79151 6.16477 5.79526 6.16772 5.79976C6.18172 5.78476 6.19647 5.77051 6.21048 5.75551C6.28421 5.68126 6.36089 5.61901 6.44421 5.60026C6.52753 5.57851 6.61822 5.61226 6.70228 5.60551C6.78633 5.59801 6.86449 5.55676 6.94265 5.50801C7.02007 5.45626 7.09675 5.39851 7.17195 5.30101C7.17122 5.28751 7.16974 5.27401 7.16901 5.26126C7.08126 5.20651 6.99647 5.19526 6.91094 5.19526C6.82615 5.19751 6.74136 5.21176 6.66025 5.26576C6.57914 5.32126 6.50394 5.41951 6.42431 5.46601C6.38523 5.49076 6.34394 5.50501 6.30265 5.51401C6.30412 5.50576 6.30412 5.49826 6.3056 5.49001C6.57398 4.98301 6.91536 4.50376 7.33048 4.06726C6.93748 4.45351 6.60348 4.87951 6.32772 5.33326C6.32845 5.31976 6.33435 5.30401 6.33435 5.29051C6.34099 5.19301 6.34541 5.09626 6.33656 5.00476C6.30781 4.82551 6.25988 4.65226 6.12937 4.50601C6.11536 4.51126 6.10136 4.51651 6.08735 4.52176C5.94873 4.77001 5.9126 4.98676 5.91186 5.18476C5.91776 5.28151 5.93914 5.37001 5.9679 5.45476C5.99149 5.54251 6.03426 5.61976 6.08735 5.69101C6.09472 5.70151 6.10209 5.71126 6.1102 5.72176C5.95242 6.02701 5.8197 6.34351 5.71278 6.66676C5.71205 6.66376 5.71278 6.66001 5.71205 6.65626C5.69066 6.55651 5.67002 6.45526 5.63831 6.36151C5.56458 6.18076 5.47463 6.00901 5.31094 5.88076C5.29841 5.88901 5.28661 5.89726 5.27407 5.90551C5.1996 6.19051 5.2173 6.42376 5.26744 6.62926C5.29693 6.72826 5.34191 6.81601 5.39205 6.89851C5.43776 6.98476 5.50043 7.05676 5.57122 7.12051C5.57343 7.12201 5.57564 7.12426 5.57712 7.12576C5.49601 7.44676 5.4385 7.77301 5.40606 8.10226C5.36255 8.00551 5.31831 7.90951 5.26523 7.82326C5.14578 7.65076 5.0138 7.48951 4.81914 7.38601C4.80882 7.39651 4.7985 7.40701 4.78818 7.41826C4.78375 7.72726 4.8597 7.96426 4.96145 8.16676C5.01675 8.26351 5.08384 8.34526 5.15536 8.42026C5.21804 8.49376 5.29398 8.54926 5.37435 8.59876C5.36624 8.92351 5.38099 9.24976 5.42007 9.57376C5.35518 9.48976 5.29103 9.40501 5.22025 9.33226C5.05583 9.17926 4.88182 9.03826 4.66062 8.96551C4.65251 8.97826 4.64513 8.99101 4.63702 9.00376C4.70781 9.32101 4.84495 9.54976 4.99979 9.73651C5.08016 9.82501 5.16937 9.89551 5.26154 9.95776C5.33527 10.014 5.41785 10.05 5.50191 10.0823C5.56458 10.3988 5.65085 10.7115 5.75997 11.019C5.67666 10.9515 5.59481 10.8825 5.50854 10.8248C5.30062 10.701 5.08753 10.59 4.84274 10.557C4.83758 10.5713 4.83315 10.5855 4.82799 10.5998C4.97914 10.9095 5.17675 11.1158 5.38394 11.2748C5.48937 11.349 5.59924 11.4023 5.71057 11.4473C5.79168 11.4848 5.87647 11.5013 5.96053 11.517C6.09325 11.8125 6.24956 12.1005 6.42799 12.378C6.32919 12.33 6.23113 12.279 6.13232 12.2415C5.88458 12.159 5.63536 12.0878 5.37361 12.099C5.37214 12.1148 5.37066 12.1298 5.36919 12.1455C5.60292 12.4305 5.86172 12.5993 6.11831 12.7178C6.24735 12.771 6.37638 12.8025 6.50467 12.825C6.58873 12.8438 6.67131 12.8408 6.75463 12.8415C6.89325 13.0215 7.04292 13.1955 7.20219 13.3635C7.28624 13.278 7.37103 13.1918 7.45509 13.1063C7.27149 12.9263 7.10117 12.7365 6.94338 12.54C6.93527 12.4755 6.93232 12.4133 6.94117 12.354C6.95666 12.2288 7.0267 12.1208 7.06062 12.0038C7.09306 11.886 7.09527 11.7615 7.0938 11.6355C7.09011 11.5088 7.082 11.382 7.04219 11.2418C7.03113 11.2358 7.01933 11.2313 7.00753 11.2268Z" fill="#ED6362"/>
<path d="M12.9268 11.2268C13.0234 11.316 13.0802 11.4225 13.1251 11.535C13.1679 11.6483 13.1989 11.7675 13.1908 11.901C13.1819 12.0353 13.1281 12.183 13.1207 12.3158C13.1192 12.333 13.1237 12.3495 13.1229 12.366C13.3707 12.033 13.5823 11.6798 13.757 11.3123C13.7526 11.238 13.7415 11.1675 13.715 11.1053C13.6722 10.9973 13.5815 10.9163 13.524 10.818C13.4673 10.7198 13.4392 10.6073 13.4149 10.4925C13.3928 10.3763 13.3751 10.2585 13.3862 10.1205C13.3965 10.1138 13.4075 10.107 13.4179 10.0995C13.5277 10.1588 13.6037 10.242 13.67 10.3335C13.7334 10.4265 13.788 10.527 13.8086 10.65C13.8278 10.7738 13.8086 10.92 13.83 11.0408C13.8337 11.064 13.844 11.0843 13.8499 11.1068C14.0092 10.7393 14.1331 10.359 14.2208 9.97129C14.2009 9.88729 14.1736 9.80929 14.1286 9.74779C14.0667 9.66004 13.9635 9.60829 13.8897 9.53329C13.8167 9.45679 13.7688 9.36079 13.7246 9.26029C13.6818 9.15754 13.6435 9.05254 13.6302 8.92054C13.6391 8.91154 13.6479 8.90254 13.6567 8.89354C13.7718 8.92129 13.8595 8.98054 13.9391 9.04879C14.0173 9.11854 14.0873 9.19954 14.1309 9.30679C14.1729 9.41554 14.1825 9.55504 14.2267 9.66004C14.2378 9.68854 14.2555 9.71029 14.2702 9.73579C14.3425 9.35179 14.3801 8.96179 14.3823 8.57104C14.3432 8.47879 14.2975 8.39479 14.2311 8.33929C14.1559 8.27329 14.0497 8.25229 13.9664 8.20054C13.8838 8.14804 13.8212 8.06854 13.7615 7.98529C13.7032 7.89904 13.6486 7.80829 13.6125 7.68529C13.6191 7.67404 13.6258 7.66354 13.6324 7.65229C13.746 7.64929 13.8381 7.68454 13.9251 7.72879C14.0107 7.77604 14.0918 7.83304 14.1515 7.92454C14.2112 8.01679 14.2451 8.14504 14.3063 8.23204C14.327 8.26279 14.3528 8.28529 14.3779 8.30929C14.3646 7.92754 14.3181 7.54654 14.2385 7.17004C14.2348 7.16404 14.2311 7.15879 14.2274 7.15279C14.1677 7.06054 14.1014 6.97879 14.018 6.93754C13.9362 6.89404 13.8344 6.90229 13.7474 6.87379C13.6612 6.84454 13.5889 6.78454 13.5181 6.71779C13.4488 6.64879 13.3817 6.57454 13.325 6.46279C13.3294 6.45079 13.3331 6.43804 13.3375 6.42529C13.4415 6.39454 13.5329 6.40579 13.6214 6.42679C13.7091 6.45079 13.7946 6.48604 13.8669 6.55879C13.9391 6.63304 13.9952 6.74779 14.0682 6.81379C14.0999 6.84454 14.1345 6.86479 14.1707 6.88429C14.0748 6.51154 13.9436 6.14404 13.7777 5.78779C13.7747 5.79229 13.771 5.79604 13.7681 5.80054C13.7541 5.78554 13.7393 5.77129 13.7253 5.75629C13.6516 5.68204 13.5749 5.61979 13.4916 5.60104C13.4083 5.57929 13.3176 5.61304 13.2335 5.60629C13.1495 5.59879 13.0713 5.55754 12.9932 5.50879C12.9157 5.45704 12.8391 5.39929 12.7638 5.30179C12.7646 5.28829 12.7661 5.27479 12.7668 5.26204C12.8545 5.20729 12.9393 5.19604 13.0249 5.19604C13.1097 5.19829 13.1944 5.21254 13.2756 5.26654C13.3567 5.32204 13.4319 5.42029 13.5115 5.46679C13.5506 5.49154 13.5919 5.50579 13.6332 5.51479C13.6317 5.50729 13.6309 5.49904 13.6302 5.49154C13.3618 4.98454 13.0204 4.50529 12.6053 4.06879C12.9983 4.45504 13.3323 4.88104 13.6081 5.33479C13.6073 5.32129 13.6015 5.30554 13.6015 5.29204C13.5948 5.19454 13.5904 5.09779 13.5992 5.00629C13.628 4.82704 13.6759 4.65379 13.8064 4.50754C13.8204 4.51279 13.8344 4.51804 13.8485 4.52329C13.9871 4.77154 14.0232 4.98829 14.0239 5.18629C14.018 5.28304 13.9967 5.37154 13.9679 5.45629C13.9443 5.54404 13.9015 5.62129 13.8485 5.69254C13.8411 5.70304 13.8337 5.71279 13.8256 5.72329C13.9834 6.02854 14.1161 6.34504 14.223 6.66829C14.2238 6.66529 14.223 6.66154 14.2238 6.65779C14.2437 6.55654 14.2643 6.45529 14.296 6.36154C14.3697 6.18079 14.4597 6.00904 14.6234 5.88079C14.6359 5.88904 14.6485 5.89654 14.661 5.90479C14.7355 6.18979 14.7178 6.42304 14.6684 6.62854C14.6389 6.72754 14.5939 6.81529 14.5438 6.89779C14.498 6.98404 14.4354 7.05604 14.3646 7.11979C14.3624 7.12129 14.3602 7.12354 14.3587 7.12504C14.4398 7.44604 14.4973 7.77229 14.5297 8.10154C14.5732 8.00479 14.6175 7.90879 14.6706 7.82254C14.79 7.65004 14.922 7.48879 15.1167 7.38529C15.127 7.39579 15.1373 7.40629 15.1476 7.41679C15.152 7.72579 15.0761 7.96279 14.9744 8.16529C14.9191 8.26204 14.852 8.34379 14.7804 8.41879C14.7178 8.49229 14.6418 8.54779 14.5615 8.59729C14.5696 8.92204 14.5548 9.24829 14.5157 9.57229C14.5806 9.48829 14.6448 9.40354 14.7156 9.33079C14.88 9.17779 15.054 9.03679 15.2752 8.96404C15.2833 8.97679 15.2907 8.98954 15.2988 9.00229C15.228 9.31954 15.0909 9.54829 14.936 9.73504C14.8556 9.82354 14.7664 9.89404 14.6743 9.95629C14.6005 10.0125 14.5179 10.0485 14.4339 10.0808C14.3712 10.3973 14.285 10.71 14.1758 11.0175C14.2591 10.95 14.341 10.881 14.4273 10.8233C14.6352 10.6995 14.8483 10.5885 15.0931 10.5555C15.0982 10.5698 15.1026 10.584 15.1078 10.5983C14.9567 10.908 14.7591 11.1143 14.5519 11.2733C14.4464 11.3475 14.3366 11.4008 14.2252 11.4458C14.1441 11.4833 14.0593 11.4998 13.9753 11.5155C13.8426 11.811 13.6862 12.099 13.5078 12.3765C13.6066 12.3285 13.7047 12.2775 13.8035 12.24C14.0512 12.1575 14.3004 12.0863 14.5622 12.0975C14.5637 12.1133 14.5651 12.1283 14.5666 12.144C14.3329 12.429 14.0741 12.5978 13.8175 12.7163C13.6885 12.7695 13.5594 12.801 13.4311 12.8235C13.3471 12.8423 13.2645 12.8393 13.1812 12.84C13.0426 13.02 12.8929 13.194 12.7336 13.362C12.6496 13.2765 12.5648 13.1903 12.4807 13.1048C12.6643 12.9248 12.8346 12.735 12.9924 12.5385C13.0005 12.474 13.0035 12.4118 12.9946 12.3525C12.9791 12.2273 12.9091 12.1193 12.8752 12.0023C12.8427 11.8845 12.8405 11.76 12.842 11.634C12.8457 11.5073 12.8538 11.3805 12.8936 11.2403C12.9032 11.2358 12.915 11.2313 12.9268 11.2268Z" fill="#ED6362"/>
<path d="M9.84554 4.61548C9.66858 5.11798 9.34268 5.55673 8.86711 5.93398C8.62453 6.12673 8.39596 6.26848 8.17255 6.39373V7.83748C8.67835 7.60048 9.15098 7.31848 9.55209 6.93673V12.8895H11.1049V4.61548H9.84554Z" fill="#E95454"/>
</svg>
